<svg width="512" height="437" viewBox="0 0 512 437" fill="none" xmlns="http://www.w3.org/2000/svg">
<g clip-path="url(#clip0_3_57)">
<path d="M270.952 119.964L270.89 181.073C271.099 264.468 203.023 332.528 119.872 332.434C86.8433 332.384 56.7794 322.337 32.4142 304.758C76.122 383.323 159.953 436.38 255.269 436.432C393.742 436.306 508.206 323.593 510.391 185.051L510.361 184.473C510.488 181.281 510.364 122.209 510.52 119.594C510.345 53.8634 456.594 -0.151699 390.84 0.0230914C324.782 -0.0761969 270.747 53.6553 270.952 119.964Z" fill="url(#paint0_linear_3_57)"/>
<path d="M119.731 61.5014C53.7106 61.5014 -5.69703e-05 115.196 -5.69703e-05 181.195C-5.69703e-05 247.189 53.7106 300.884 119.731 300.884C185.754 300.884 239.466 247.189 239.466 181.195C239.466 115.196 185.754 61.5014 119.731 61.5014Z" fill="#0B23A9"/>
</g>
<defs>
<linearGradient id="paint0_linear_3_57" x1="144.465" y1="432.322" x2="418.535" y2="128.61" gradientUnits="userSpaceOnUse">
<stop stop-color="#09DBF0"/>
<stop offset="1" stop-color="#0B23A9"/>
</linearGradient>
<clipPath id="clip0_3_57">
<rect width="512" height="437" fill="white"/>
</clipPath>
</defs>
</svg>
